<svg width="200" height="200" viewBox="0 0 200 200" fill="none" xmlns="http://www.w3.org/2000/svg">
<path d="M48.037 178.584H152.693C163.213 178.584 171.732 170.061 171.732 159.545V40.0391C171.732 29.5241 163.212 21 152.693 21H48.037C37.521 21 29 29.5241 29 40.0391V159.545C29 170.061 37.521 178.584 48.037 178.584Z" fill="url(#paint0_linear_2866_179)"/>
<path d="M48.037 178.584H152.693C163.213 178.584 171.732 170.061 171.732 159.545V143.154C151.955 139.373 127.213 137.127 100.368 137.127C73.515 137.127 48.772 139.373 29 143.154V159.545C29 170.061 37.521 178.584 48.037 178.584Z" fill="url(#paint1_linear_2866_179)"/>
<path d="M39.3829 54.332V152.431H161.349V54.332H39.3829ZM95.2749 164.129C95.2749 161.315 97.5539 159.039 100.365 159.039C103.177 159.039 105.457 161.314 105.457 164.129C105.457 166.941 103.178 169.219 100.365 169.219C97.5539 169.219 95.2749 166.941 95.2749 164.129Z" fill="#59E4E4"/>
<path d="M54.871 66.5093H89.883V103.071H54.871V66.5093Z" fill="#F1AFAD"/>
<path d="M138.36 33.584C138.692 33.434 139.062 33.3481 139.455 33.3481H158.692C159.051 33.3481 159.391 33.4179 159.699 33.5459L149.207 40.8291L138.36 33.584ZM153.556 40.2109L161.135 34.9531C161.272 35.2771 161.349 35.6299 161.349 36.0049V47.6831L153.556 40.2109ZM146.113 41.1392L148.667 42.8442C148.9 43.0002 149.546 42.994 149.78 42.835L152.113 41.2163L160.945 49.686C160.478 50.436 159.644 50.9341 158.693 50.9341H139.455C138.504 50.9341 137.671 50.436 137.202 49.686L146.113 41.1392ZM136.797 36.0049C136.797 35.6619 136.86 35.3361 136.98 35.0371L144.645 40.1582L136.797 47.6821V36.0049Z" fill="#59E4E4"/>
<path d="M39.3829 33.729H132.845V50.9341H39.3829V33.729Z" fill="#59E4E4"/>
<path d="M108.199 105.721C108.199 103.862 109.702 102.358 111.559 102.358H144.97C146.825 102.358 148.331 103.862 148.331 105.721V134.826C148.331 136.682 146.825 138.188 144.97 138.188H111.559C109.705 138.188 108.199 136.682 108.199 134.826V105.721Z" fill="#F6E086"/>
<path d="M111.045 61.7642H144.102C148.336 61.7642 151.764 65.1982 151.764 69.4282V83.166C151.764 87.4 148.336 90.8301 144.102 90.8301H111.045C106.816 90.8301 103.385 87.4 103.385 83.166V69.4282C103.384 65.1982 106.815 61.7642 111.045 61.7642ZM111.984 82.2271H143.162V70.3682H111.045C111.158 70.3202 111.578 70.0933 111.709 70.0933C111.758 69.9803 111.898 69.5132 111.984 69.4292V82.2271Z" fill="#BDFFFF"/>
<path d="M111.559 98.5962H144.97C149.201 98.5962 152.628 102.028 152.628 106.258V135.365C152.628 139.597 149.201 143.029 144.97 143.029H111.559C107.33 143.029 103.898 139.597 103.898 135.365V106.258C103.898 102.028 107.33 98.5962 111.559 98.5962ZM112.498 134.428H144.032V107.197H111.559C111.669 107.152 112.094 106.925 112.222 106.925C112.272 106.812 112.415 106.344 112.497 106.259L112.498 134.428Z" fill="#BDFFFF"/>
<path d="M55.761 114.253H88.562C92.792 114.253 96.224 117.684 96.224 121.916V135.365C96.224 139.597 92.792 143.029 88.562 143.029H55.761C51.527 143.029 48.098 139.597 48.098 135.365V121.916C48.098 117.686 51.527 114.253 55.761 114.253ZM56.701 134.428H87.622V122.856H55.762C55.875 122.807 56.295 122.581 56.426 122.581C56.475 122.47 56.617 122.003 56.701 121.917V134.428Z" fill="#BDFFFF"/>
<path d="M87.8609 99.9082V78.4082C87.8649 72.6712 96.4829 72.679 96.4799 78.416L96.4619 100.847C96.4619 105.081 93.0319 108.513 88.7999 108.513H55.7609C51.5269 108.513 48.1019 105.079 48.1019 100.847V69.4292C48.1019 65.1992 51.5269 61.7681 55.7609 61.7681H87.3459C93.0829 61.7681 93.0829 70.3711 87.3459 70.3711H56.7V99.9092L87.8609 99.9082Z" fill="#BDFFFF"/>
<defs>
<linearGradient id="paint0_linear_2866_179" x1="25.8974" y1="128.566" x2="178.772" y2="69.5019" gradientUnits="userSpaceOnUse">
<stop offset="0.2151" stop-color="#4835EA"/>
<stop offset="1" stop-color="#9868F8"/>
</linearGradient>
<linearGradient id="paint1_linear_2866_179" x1="30.1629" y1="133.783" x2="170.406" y2="182.414" gradientUnits="userSpaceOnUse">
<stop stop-color="#3129B2"/>
<stop offset="1" stop-color="#2A9CE2"/>
</linearGradient>
</defs>
</svg>
